<svg width="20" height="21" viewBox="0 0 20 21" fill="none" xmlns="http://www.w3.org/2000/svg">
<path d="M10 0.5C15.5333 0.5 20 4.96667 20 10.5C20 16.0333 15.5333 20.5 10 20.5C4.46667 20.5 0 16.0333 0 10.5C0 4.96667 4.46667 0.5 10 0.5Z" fill="#FFDD67"/>
<path d="M11.2667 6.6669C10.5334 7.03357 9.43339 7.03357 8.70006 6.6669C7.93339 6.2669 6.96673 6.00024 5.80006 5.90024C4.66673 5.80024 2.30006 5.80024 1.13339 6.23357C1.00006 6.2669 0.866726 6.33357 0.733392 6.40024C0.700059 6.43357 0.666726 6.4669 0.666726 6.60023V6.7669C0.666726 7.10024 0.633393 6.9669 0.866726 7.10023C1.33339 7.3669 1.60006 8.0669 1.73339 9.03357C1.93339 10.4336 2.63339 11.3336 3.73339 11.7336C4.76673 12.1336 5.93339 12.1002 6.96673 11.7002C7.53339 11.4669 8.03339 11.1336 8.43339 10.5336C9.13339 9.53357 8.90006 8.90024 9.26673 8.03357C9.56673 7.2669 10.4334 7.2669 10.7667 8.03357C11.1334 8.90024 10.9001 9.53357 11.6001 10.5336C12.0001 11.1002 12.5001 11.4669 13.0667 11.7002C14.1001 12.1002 15.2667 12.1336 16.3001 11.7336C17.4334 11.3002 18.1001 10.4336 18.3001 9.03357C18.4334 8.0669 18.7001 7.3669 19.1667 7.10023C19.4001 6.9669 19.3667 7.10024 19.3667 6.7669V6.60023C19.3667 6.4669 19.3667 6.43357 19.2667 6.40024C19.1334 6.33357 19.0001 6.2669 18.8667 6.23357C17.6667 5.80024 15.3001 5.80024 14.2001 5.90024C13.0334 6.00024 12.0667 6.2669 11.2667 6.6669Z" fill="#494949"/>
<path d="M14.1999 13.9333C11.4999 15.8333 8.49991 15.7999 5.79991 13.9333C5.46657 13.6999 5.19991 14.0999 5.39991 14.4666C6.23324 15.7999 7.86657 17.0333 9.99991 17.0333C12.1332 17.0333 13.7666 15.8333 14.5999 14.4666C14.7999 14.0999 14.5332 13.6999 14.1999 13.9333Z" fill="#664E27"/>
</svg>
