<svg width="37" height="36" viewBox="0 0 37 36" fill="none" xmlns="http://www.w3.org/2000/svg">
<path d="M0.75 17.543V18.5133C1.00312 27.8227 8.49844 35.2969 17.4211 36H20.1633C29.1352 35.2899 36.5039 27.7524 36.75 18.4992V17.543C36.5039 8.12815 28.882 0.49221 19.6922 0.0211161C9.80625 -0.478103 1.02422 7.45315 0.75 17.543Z" fill="url(#paint0_radial_94_718)"/>
<path d="M18.8344 9.04199C21.7032 9.04199 22.0407 9.04902 23.1797 9.10527C24.2274 9.14746 24.7899 9.33027 25.1696 9.47793C25.6688 9.6748 26.0274 9.91387 26.4 10.2936C26.7727 10.6732 27.0118 11.0389 27.2086 11.5451C27.3563 11.9318 27.525 12.5084 27.5813 13.5771C27.6375 14.7303 27.6446 15.0748 27.6446 17.9928C27.6446 20.9107 27.6375 21.2553 27.5813 22.4084C27.5391 23.4701 27.3633 24.0537 27.2086 24.4404C27.0118 24.9467 26.7797 25.3123 26.4 25.692C26.0274 26.0717 25.6688 26.3107 25.1696 26.5076C24.7899 26.6623 24.2204 26.8381 23.1797 26.8803C22.0477 26.9365 21.7032 26.9436 18.8344 26.9436C15.9657 26.9436 15.6282 26.9365 14.4891 26.8803C13.4415 26.8381 12.879 26.6553 12.4993 26.5076C12 26.3107 11.6415 26.0717 11.2688 25.692C10.8961 25.3123 10.6571 24.9467 10.4602 24.4404C10.3125 24.0537 10.1438 23.4771 10.0875 22.4084C10.0313 21.2553 10.0243 20.9107 10.0243 17.9928C10.0243 15.0748 10.0313 14.7303 10.0875 13.5771C10.1297 12.5154 10.3055 11.9318 10.4602 11.5451C10.6571 11.0389 10.8891 10.6732 11.2688 10.2936C11.6415 9.91387 12 9.6748 12.4993 9.47793C12.879 9.32324 13.4485 9.14746 14.4891 9.10527C15.6211 9.05605 15.9657 9.04199 18.8344 9.04199ZM18.8344 7.07324C15.9165 7.07324 15.5508 7.0873 14.4118 7.14355C13.2727 7.1998 12.4852 7.38262 11.8032 7.64981C11.093 7.93106 10.4954 8.30371 9.90474 8.91543C9.30708 9.52715 8.94146 10.1318 8.66724 10.8561C8.40005 11.5451 8.21724 12.3467 8.16802 13.5068C8.11177 14.667 8.10474 15.0396 8.10474 18.0068C8.10474 20.974 8.1188 21.3467 8.16802 22.5068C8.22427 23.667 8.40708 24.4615 8.66724 25.1576C8.94146 25.8748 9.30708 26.4865 9.90474 27.0982C10.5024 27.71 11.1 28.0826 11.8032 28.3639C12.4852 28.6381 13.2727 28.8209 14.4118 28.8701C15.5579 28.9264 15.9235 28.9404 18.8344 28.9404C21.7454 28.9404 22.118 28.9264 23.2571 28.8701C24.3961 28.8139 25.1836 28.6311 25.8657 28.3639C26.5758 28.0826 27.1735 27.71 27.7641 27.0982C28.3618 26.4865 28.7274 25.8818 29.0016 25.1576C29.2688 24.4686 29.4516 23.667 29.5008 22.5068C29.5571 21.3467 29.5641 20.974 29.5641 18.0068C29.5641 15.0396 29.55 14.667 29.5008 13.5068C29.4446 12.3467 29.2618 11.5521 29.0016 10.8561C28.7274 10.1389 28.3618 9.52715 27.7641 8.91543C27.1665 8.30371 26.5688 7.93106 25.8657 7.64981C25.1836 7.37559 24.3961 7.19277 23.2571 7.14355C22.118 7.0873 21.7454 7.07324 18.8344 7.07324Z" fill="white"/>
<path d="M18.8344 12.3889C15.7828 12.3889 13.3219 14.8991 13.3219 17.9999C13.3219 21.1006 15.7899 23.6108 18.8344 23.6108C21.8789 23.6108 24.3469 21.1006 24.3469 17.9999C24.3469 14.8991 21.8789 12.3889 18.8344 12.3889ZM18.8344 21.642C16.8586 21.642 15.2555 20.0178 15.2555 17.9999C15.2555 15.9819 16.8586 14.3577 18.8344 14.3577C20.8102 14.3577 22.4133 15.9819 22.4133 17.9999C22.4133 20.0178 20.8102 21.642 18.8344 21.642Z" fill="white"/>
<path d="M24.5649 13.4716C25.2756 13.4716 25.8516 12.8861 25.8516 12.1638C25.8516 11.4415 25.2756 10.856 24.5649 10.856C23.8543 10.856 23.2782 11.4415 23.2782 12.1638C23.2782 12.8861 23.8543 13.4716 24.5649 13.4716Z" fill="white"/>
<defs>
<radialGradient id="paint0_radial_94_718" cx="0" cy="0" r="1" gradientUnits="userSpaceOnUse" gradientTransform="translate(1.40783 32.6992) rotate(-86.9998) scale(52.0464 44.2394)">
<stop stop-color="#FED576"/>
<stop offset="0.2634" stop-color="#F47133"/>
<stop offset="0.6091" stop-color="#BC3081"/>
<stop offset="1" stop-color="#4C63D2"/>
</radialGradient>
</defs>
</svg>
