<svg width="37" height="36" viewBox="0 0 37 36" fill="none" xmlns="http://www.w3.org/2000/svg">
<path d="M0.75 18C0.75 8.0589 8.8089 0 18.75 0C28.6911 0 36.75 8.0589 36.75 18C36.75 27.9411 28.6911 36 18.75 36C8.8089 36 0.75 27.9411 0.75 18Z" fill="#0077B5"/>
<path fill-rule="evenodd" clip-rule="evenodd" d="M13.7391 11.117C13.7391 12.2938 12.8533 13.2355 11.4309 13.2355H11.4048C10.0354 13.2355 9.15002 12.2938 9.15002 11.117C9.15002 9.9153 10.0623 9 11.4578 9C12.8533 9 13.7126 9.9153 13.7391 11.117ZM13.4704 14.9083V27.1647H9.39122V14.9083H13.4704ZM28.1814 27.1647L28.1816 20.1373C28.1816 16.3727 26.1692 14.6206 23.4848 14.6206C21.3191 14.6206 20.3494 15.8101 19.808 16.6447V14.9087H15.7283C15.7821 16.0588 15.7283 27.165 15.7283 27.165H19.808V20.32C19.808 19.9537 19.8345 19.5884 19.9424 19.3261C20.2372 18.5943 20.9084 17.8366 22.0354 17.8366C23.5121 17.8366 24.1024 18.9605 24.1024 20.6075V27.1647H28.1814Z" fill="white"/>
</svg>
