<svg width="33" height="35" viewBox="0 0 33 35" fill="none" xmlns="http://www.w3.org/2000/svg">
<mask id="mask0_193_546" style="mask-type:luminance" maskUnits="userSpaceOnUse" x="0" y="0" width="33" height="35">
<path d="M33 0H0V34.6018H33V0Z" fill="white"/>
</mask>
<g mask="url(#mask0_193_546)">
<path d="M20.9085 5.06551C21.769 5.06551 22.4667 4.40469 22.4667 3.58955C22.4667 2.77441 21.769 2.11359 20.9085 2.11359C20.0479 2.11359 19.3502 2.77441 19.3502 3.58955C19.3502 4.40469 20.0479 5.06551 20.9085 5.06551Z" fill="#D7D7D7"/>
<path d="M27.7277 29.2614C28.5884 29.2614 29.2859 28.6005 29.2859 27.7854C29.2859 26.9703 28.5884 26.3094 27.7277 26.3094C26.8672 26.3094 26.1694 26.9703 26.1694 27.7854C26.1694 28.6005 26.8672 29.2614 27.7277 29.2614Z" fill="#D7D7D7"/>
<path d="M1.55825 22.4704C2.41883 22.4704 3.11649 21.8095 3.11649 20.9944C3.11649 20.1794 2.41883 19.5185 1.55825 19.5185C0.697651 19.5185 0 20.1794 0 20.9944C0 21.8095 0.697651 22.4704 1.55825 22.4704Z" fill="#D7D7D7"/>
<path d="M8.70216 28.6585C8.55441 28.3071 8.42168 27.944 8.28896 27.5788C7.5421 27.6449 6.79809 27.6718 6.06301 27.6418C4.87494 27.5657 3.6958 27.3294 2.72327 26.7704C1.75073 26.2308 1.07612 25.272 0.962673 24.2597C0.913966 23.8806 0.937305 23.5055 0.985607 23.1334C0.740038 23.0748 0.507661 22.9821 0.300043 22.8552C0.197351 23.3279 0.14702 23.8254 0.188218 24.3502C0.223125 24.6543 0.26473 24.9513 0.386094 25.29C0.441093 25.4704 0.498934 25.5986 0.553324 25.7139L0.638563 25.8986C0.719337 26.0428 0.741256 26.0542 0.797067 26.1393C1.15223 26.6968 1.65209 27.1876 2.22401 27.5345C3.3723 28.2554 4.69675 28.563 5.99481 28.7056C6.90525 28.7817 7.82095 28.7817 8.73585 28.7273C8.72509 28.7048 8.71271 28.6824 8.70216 28.6585ZM6.64222 14.753C6.53141 14.8399 6.42791 14.923 6.31263 15.0106C5.67497 15.4693 5.10752 16.0491 4.4731 16.63C4.31642 16.7757 4.15609 16.9245 3.99536 17.074C3.83766 17.2372 3.67875 17.4012 3.5166 17.5669C3.20223 17.8972 2.88563 18.2426 2.58405 18.6132C2.50327 18.7121 2.42331 18.8164 2.34294 18.9189C2.50002 18.9729 2.65021 19.039 2.79065 19.1215C2.85032 19.0387 2.90836 18.9527 2.96924 18.8716C3.53385 18.1307 4.09683 17.4489 4.72841 16.8612C5.34314 16.2642 5.89578 15.6648 6.50544 15.1998C6.5444 15.1688 6.57687 15.1398 6.61503 15.1083C6.62477 14.9864 6.6337 14.8684 6.64222 14.753ZM12.6353 10.9774C12.6353 10.9774 12.9184 10.8365 13.454 10.5695C13.9318 10.3503 14.5909 9.97626 15.4445 9.60333C15.3658 9.57335 15.2865 9.53874 15.2071 9.50837C14.4274 9.86919 13.8246 10.2177 13.3761 10.4297C12.844 10.7023 12.5594 10.8488 12.5594 10.8488C12.5594 10.8488 12.283 11.0095 11.7679 11.3092C11.3494 11.5718 10.7264 11.8936 10.0063 12.353C9.99495 12.4338 9.98643 12.5153 9.97506 12.5952C10.7446 12.0801 11.4144 11.7275 11.8552 11.4451C12.3642 11.1391 12.6353 10.9774 12.6353 10.9774ZM32.7992 9.69599C32.7135 9.30941 32.5625 9.14794 32.4424 8.88342C32.0872 8.23003 31.6231 7.81615 31.0918 7.44976C30.0192 6.75926 28.8408 6.53051 27.7557 6.43054C26.6612 6.34865 25.621 6.41632 24.6432 6.54627C23.6589 6.68602 22.7438 6.86249 21.89 7.10528C21.0338 7.3375 20.2104 7.51473 19.4792 7.80731C19.3444 7.85652 19.2194 7.89939 19.0863 7.94572C19.2001 7.99839 19.315 8.04952 19.4293 8.10123C19.4751 8.08701 19.5182 8.07413 19.564 8.05798C20.2973 7.79001 21.117 7.63853 21.9684 7.43246C22.8155 7.21062 23.735 7.08644 24.6877 6.99417C25.6434 6.91189 26.6506 6.89459 27.6737 7.01724C28.6868 7.15488 29.7478 7.42669 30.6173 8.04376C31.039 8.35248 31.4207 8.75309 31.6448 9.21291C31.9017 9.70752 32.0286 10.2077 32.0324 10.7437C32.0562 11.8209 31.6817 12.9063 31.1571 13.9184C30.0492 15.9335 28.3954 17.7397 26.5173 19.3343C24.6416 20.936 22.5309 22.3541 20.3139 23.5684C18.0772 24.7906 15.7433 25.8016 13.3351 26.5438C12.6292 26.7612 11.9165 26.9523 11.2019 27.1126C11.3515 27.534 11.5085 27.9428 11.679 28.3329C12.382 28.1931 13.0822 28.0299 13.772 27.8335C15.0504 27.5009 16.2923 27.0463 17.5122 26.5405C18.1263 26.2956 18.7352 25.9957 19.3479 25.7231L21.0616 24.8614C21.6846 24.5009 22.216 24.1939 22.7881 23.8443C23.3352 23.4827 23.8956 23.1422 24.4277 22.7618C25.4991 22.0121 26.5412 21.2278 27.4825 20.3428C28.4465 19.4867 29.3302 18.5527 30.1436 17.5802C30.9272 16.5794 31.6212 15.5225 32.1723 14.3995C32.691 13.2619 33.0731 12.0212 32.9883 10.7175C32.9999 10.4096 32.8915 10.0374 32.7992 9.69599Z" fill="#D7D7D7"/>
<path d="M10.0085 5.23852C10.4236 5.29542 10.8124 5.37423 11.2106 5.44459C11.5236 4.79946 11.8617 4.17086 12.256 3.58225C12.9205 2.64627 13.7245 1.79602 14.7214 1.27738C15.6968 0.744706 16.923 0.681846 17.8978 1.09572C18.4285 1.30968 18.8926 1.62282 19.3097 1.98172C19.4794 1.82966 19.6736 1.70471 19.8857 1.60667C19.4195 1.14705 18.8788 0.724522 18.189 0.410415C17.8799 0.30238 17.4966 0.140905 17.2216 0.103228L16.8045 0.0390225L16.5942 0.00634313C16.659 0.01038 16.4771 -0.00192285 16.4844 -5.28547e-07L16.4534 0.00153733L16.3899 0.0055742L16.2612 0.0126868C15.5744 0.0253741 14.8771 0.191655 14.2723 0.486154C13.0396 1.06766 12.0981 2.00056 11.3178 2.99517C10.7921 3.70297 10.3355 4.45383 9.92756 5.2316C9.95475 5.23506 9.98032 5.23544 10.0085 5.23852ZM23.4564 10.3108C23.5621 10.3794 23.6642 10.4444 23.7651 10.5093C23.7667 10.5097 23.7675 10.5105 23.7693 10.512C23.489 8.96801 23.0547 7.22831 22.2941 5.36251C22.1681 5.45055 22.0355 5.52687 21.8924 5.5905C22.6505 7.1914 23.1051 8.76117 23.4245 10.1618C23.4369 10.2131 23.4446 10.2596 23.4564 10.3108ZM24.3629 17.3061C24.3629 17.3061 24.3591 16.9997 24.3512 16.427C24.3571 15.9512 24.3238 15.2836 24.2722 14.4647C24.2057 14.4151 24.1367 14.3674 24.0693 14.3184C24.1383 15.2073 24.185 15.9266 24.185 16.4295C24.1986 17.0008 24.2083 17.3042 24.2083 17.3042C24.2083 17.3042 24.1996 17.6083 24.185 18.1809C24.185 18.6867 24.1375 19.4056 24.0693 20.2926C24.1367 20.243 24.2057 20.1957 24.2722 20.1469C24.3238 19.3247 24.3571 18.6578 24.3512 18.1844C24.3593 17.6138 24.3629 17.3061 24.3629 17.3061ZM23.4556 24.3068C23.4438 24.3556 23.4359 24.3998 23.4251 24.4494C23.0949 25.8971 22.6279 27.5244 21.8222 29.1793C21.601 29.5834 21.4163 30.0166 21.1444 30.4146C21.0163 30.6166 20.8866 30.8219 20.7559 31.0295C20.6064 31.2225 20.455 31.4174 20.3019 31.6145C19.6685 32.374 18.8961 33.1129 17.898 33.5151C17.6398 33.5849 17.3937 33.7104 17.1229 33.7344C16.8565 33.7438 16.5746 33.8324 16.3148 33.7817C15.735 33.7438 15.2144 33.5989 14.722 33.3334C13.726 32.8142 12.9215 31.9641 12.257 31.0289C10.9699 29.1114 10.1451 26.8512 9.62719 24.5144C9.10033 22.1745 8.85761 19.7345 8.8572 17.3093C8.8572 14.8628 9.10074 12.4438 9.62719 10.0966C9.78022 9.40515 9.97058 8.72599 10.181 8.05472C9.71994 7.96706 9.26452 7.8967 8.81925 7.84249C8.59519 8.48993 8.39346 9.14506 8.22867 9.81018C7.89339 11.0247 7.68679 12.2702 7.54087 13.5245C7.45868 14.15 7.42661 14.7986 7.37019 15.4376L7.30078 17.2755C7.31823 17.9664 7.33488 18.5564 7.36857 19.1994C7.4258 19.8301 7.45543 20.4594 7.53742 21.0854C7.68801 22.3397 7.88446 23.5871 8.22258 24.8C8.52294 26.02 8.93513 27.2112 9.41917 28.3646C9.93994 29.507 10.5591 30.6053 11.3123 31.6187C12.0932 32.6133 13.0349 33.5474 14.2688 34.1294C14.5445 34.293 14.9388 34.3897 15.2964 34.4849C15.6929 34.6091 15.9166 34.5656 16.2174 34.6004C16.9949 34.6204 17.5982 34.4526 18.2038 34.2013C19.3712 33.6691 20.1613 32.8127 20.7975 31.9753C20.9489 31.759 21.0983 31.5462 21.2463 31.3344C21.3723 31.1122 21.4959 30.8932 21.6197 30.6754C21.8817 30.2471 22.0493 29.7925 22.2545 29.3679C23.0426 27.4575 23.4878 25.6768 23.772 24.1005C23.6648 24.1674 23.5607 24.2372 23.4556 24.3068Z" fill="#D7D7D7"/>
<path d="M30.6413 18.4089C30.6255 18.4295 30.6113 18.4498 30.5947 18.4716C30.3393 18.7776 30.0804 19.0727 29.8208 19.3603C30.2525 19.9358 30.6454 20.529 30.9845 21.1428C31.5075 22.1565 31.8832 23.2424 31.8598 24.3177C31.8582 25.3856 31.3025 26.4229 30.4368 27.0169C30.2105 27.1768 29.9714 27.3112 29.7238 27.4273C29.8133 27.6439 29.8648 27.8775 29.8786 28.121C30.2287 27.9851 30.5768 27.8181 30.9184 27.598C31.1708 27.3975 31.511 27.1639 31.6823 26.9575L31.9493 26.6478L32.0841 26.4919C32.0482 26.5422 32.1505 26.3998 32.1452 26.4036L32.1602 26.3767L32.1884 26.3229L32.2459 26.2133C32.5773 25.6441 32.7743 24.989 32.808 24.3458C32.892 23.0438 32.5103 21.8058 31.9905 20.6682C31.6057 19.8822 31.1479 19.1315 30.6413 18.4089ZM27.304 14.725C26.3617 13.8426 25.3249 13.051 24.2527 12.3027C23.7205 11.9224 23.1432 11.5722 22.5877 11.2054L20.942 10.2312C20.3006 9.89975 19.7541 9.61833 19.1491 9.3246C18.5443 9.05624 17.9529 8.76597 17.3388 8.51953C16.1181 8.0155 14.8795 7.55414 13.6001 7.22369C12.3357 6.86057 11.0392 6.60278 9.74443 6.42247C8.43825 6.27983 7.12516 6.23793 5.82142 6.34884C4.52173 6.49148 3.19647 6.79886 2.04757 7.51973C1.76121 7.66352 1.47505 7.93841 1.20919 8.18447C0.89766 8.44763 0.82541 8.65313 0.642553 8.88304C0.234421 9.5101 0.0876887 10.0889 0.0148304 10.7108C-0.0815706 11.9353 0.306671 13.0118 0.753769 13.9528C0.874727 14.1842 0.995279 14.4137 1.11522 14.6417C1.25526 14.8559 1.39448 15.0666 1.53147 15.2767C1.79064 15.7052 2.12144 16.0702 2.40841 16.4514C3.76087 18.0533 5.16569 19.308 6.46375 20.3297C6.45523 20.2095 6.44549 20.0888 6.43453 19.9679C6.39597 19.9348 6.35822 19.9062 6.31925 19.8722C5.16082 18.8764 3.90659 17.6809 2.79645 16.1915C2.5383 15.809 2.23388 15.4399 2.00739 15.0174C1.88521 14.8115 1.76304 14.6031 1.63903 14.3934C1.53715 14.1729 1.43527 13.9508 1.33177 13.7275C0.953674 12.8278 0.663862 11.8246 0.794562 10.804C0.86052 10.5589 0.869247 10.2938 0.982493 10.0589C1.1067 9.83555 1.16596 9.56008 1.34293 9.37265C1.66704 8.91591 2.06137 8.5622 2.54967 8.29116C3.5222 7.7333 4.70174 7.49801 5.88981 7.42188C8.28624 7.32423 10.764 7.77732 13.1611 8.52087C15.5624 9.25904 17.9146 10.2792 20.1332 11.492C22.3703 12.7146 24.4597 14.1248 26.3425 15.7292C26.9014 16.2032 27.4357 16.6992 27.9464 17.2105C28.2559 16.876 28.5445 16.5396 28.8156 16.2028C28.3332 15.6913 27.8333 15.1946 27.304 14.725ZM13.1927 24.6428C13.6242 24.8854 14.2513 25.191 15.0268 25.5586C15.1053 25.5282 15.1833 25.4967 15.26 25.4665C14.4141 25.078 13.7328 24.757 13.2727 24.5046C12.7432 24.232 12.4613 24.0871 12.4613 24.0871C12.4613 24.0871 12.1873 23.9279 11.6718 23.6297C11.2091 23.3764 10.5759 22.9785 9.79821 22.4798C9.8108 22.559 9.81973 22.6382 9.83109 22.7174C10.556 23.1718 11.149 23.533 11.5852 23.7643C12.1041 24.0569 12.383 24.2143 12.383 24.2143C12.383 24.2143 12.6647 24.3631 13.1927 24.6428ZM25.2283 28.1124C24.9865 28.0966 24.7467 28.0749 24.51 28.0651C22.5928 27.8973 20.8728 27.4682 19.3835 27.0161C19.3301 26.9999 19.2837 26.9823 19.2313 26.9665C19.1156 27.0201 19.0046 27.0705 18.894 27.1209C18.8924 27.1224 18.891 27.1224 18.8897 27.1239C20.4725 27.677 22.3249 28.2037 24.466 28.5093C24.7254 28.5341 24.9865 28.5672 25.2528 28.5968C25.2319 28.4778 25.2147 28.3606 25.2147 28.2375C25.2145 28.1935 25.2254 28.1549 25.2283 28.1124Z" fill="#D7D7D7"/>
<mask id="mask1_193_546" style="mask-type:luminance" maskUnits="userSpaceOnUse" x="13" y="14" width="7" height="6">
<path d="M16.439 19.9921C18.0082 19.9921 19.2802 18.7872 19.2802 17.3009C19.2802 15.8145 18.0082 14.6096 16.439 14.6096C14.8697 14.6096 13.5977 15.8145 13.5977 17.3009C13.5977 18.7872 14.8697 19.9921 16.439 19.9921Z" fill="white"/>
</mask>
<g mask="url(#mask1_193_546)">
<path d="M16.4389 19.7999C17.896 19.7999 19.0772 18.681 19.0772 17.3009C19.0772 15.9207 17.896 14.8019 16.4389 14.8019C14.9818 14.8019 13.8005 15.9207 13.8005 17.3009C13.8005 18.681 14.9818 19.7999 16.4389 19.7999Z" fill="#D7D7D7"/>
</g>
</g>
</svg>
