<svg width="20" height="21" viewBox="0 0 20 21" fill="none" xmlns="http://www.w3.org/2000/svg">
<path d="M2.96661 16.0501C4.29994 14.7167 4.43327 14.3834 5.26661 15.2167C6.09994 16.0501 5.76661 16.1501 4.43328 17.5167C3.43328 18.5167 2.16661 18.3167 2.16661 18.3167C2.16661 18.3167 1.96661 17.0501 2.96661 16.0501Z" fill="#FF9D27"/>
<path d="M5.49987 17.4169C6.0332 16.0169 6.19987 15.8503 5.4332 15.4169C4.66653 14.9836 4.66653 15.2836 4.16653 16.6836C3.76653 17.7169 4.2332 18.6503 4.2332 18.6503C4.2332 18.6503 5.1332 18.4836 5.49987 17.4169Z" fill="#FF9D27"/>
<path d="M4.73335 16.1167C5.03335 15.3501 5.0332 15.1836 5.4332 15.4169C5.86654 15.6503 5.76668 15.7501 5.46668 16.5167C5.26668 17.0834 4.76668 17.2167 4.76668 17.2167C4.76668 17.2167 4.53335 16.7167 4.73335 16.1167Z" fill="#FDF516"/>
<path d="M5.03332 15.05C4.59999 14.2834 4.43332 14.45 3.03332 14.9834C1.99999 15.3834 1.79999 16.25 1.79999 16.25C1.79999 16.25 2.73332 16.7167 3.76665 16.3167C5.16665 15.7834 5.46665 15.7834 5.03332 15.05Z" fill="#FF9D27"/>
<path d="M4.3333 15.75C5.09997 15.45 5.26665 15.45 5.03332 15.05C4.79999 14.6167 4.69997 14.7167 3.9333 15.0167C3.36664 15.2167 3.2333 15.7167 3.2333 15.7167C3.2333 15.7167 3.76664 15.95 4.3333 15.75Z" fill="#FDF516"/>
<path d="M3.96654 15.6834C4.69988 14.95 4.76654 14.75 5.23321 15.2167C5.69988 15.6834 5.49988 15.75 4.76654 16.4834C4.19988 17.05 3.49988 16.9167 3.49988 16.9167C3.49988 16.9167 3.43321 16.25 3.96654 15.6834Z" fill="#FDF516"/>
<path d="M5.5 12.4834C3.43333 9.01671 0 10.45 0 10.45C0 10.45 4.9 5.55005 8.2 8.85005L5.5 12.4834Z" fill="#3BAACF"/>
<path d="M7.1 9.91671L8.16667 8.85005C4.9 5.55005 0 10.45 0 10.45C0 10.45 4.3 7.38338 7.1 9.91671Z" fill="#428BC1"/>
<path d="M8.00001 14.9833C11.4667 17.05 10.0333 20.4833 10.0333 20.4833C10.0333 20.4833 14.9333 15.5833 11.6333 12.2833L8.00001 14.9833Z" fill="#3BAACF"/>
<path d="M10.5667 13.3833L11.6334 12.3167C14.9334 15.6167 10.0334 20.5167 10.0334 20.5167C10.0334 20.5167 13.1 16.1833 10.5667 13.3833Z" fill="#428BC1"/>
<path d="M15.6 10.1169C11.7 13.9835 7.39997 16.0835 5.89997 14.5835C4.39997 13.0835 6.49997 8.78353 10.3666 4.88353C14.9 0.350196 19.9333 0.550196 19.9333 0.550196C19.9333 0.550196 20.1 5.58353 15.6 10.1169Z" fill="#C5D0D8"/>
<path d="M14.6 9.01673C10.7333 12.8834 6.86665 15.4167 5.96665 14.5167C5.06665 13.6167 7.59998 9.75007 11.4666 5.8834C16 1.35007 20 0.483398 20 0.483398C20 0.483398 19.1333 4.4834 14.6 9.01673Z" fill="#DAE3EA"/>
<path d="M7.43334 15.6501C7.26667 15.8167 7.00001 15.8167 6.83334 15.6501L4.83334 13.6501C4.66667 13.4834 4.66667 13.1834 4.83334 13.0167L5.43334 12.4167L8.03334 15.0167L7.43334 15.6501Z" fill="#C94747"/>
<path d="M6.86662 15.0501C6.69995 15.2168 6.49995 15.2834 6.39995 15.1834L5.26662 14.0501C5.16662 13.9501 5.23329 13.7501 5.39995 13.5834L5.99995 12.9834L7.46662 14.4501L6.86662 15.0501Z" fill="#F15744"/>
<path d="M6.29998 15.8833C6.19998 15.9833 5.96664 15.9833 5.86664 15.8833L4.56664 14.5833C4.46664 14.4833 4.49998 14.2833 4.59998 14.1833L4.99998 13.7833L6.69998 15.4833L6.29998 15.8833Z" fill="#3E4347"/>
<path d="M6.03332 15.6168C5.93332 15.7168 5.73332 15.7501 5.66666 15.6835L4.76666 14.7835C4.69999 14.7168 4.73332 14.5501 4.86666 14.4501L5.26662 14.0501L6.43332 15.2168L6.03332 15.6168Z" fill="#62727A"/>
<path d="M19.9333 0.550196C19.9333 0.550196 18.1334 0.483378 15.7 1.41671L19.0667 4.78338C20 2.35004 19.9333 0.550196 19.9333 0.550196Z" fill="#C94747"/>
<path d="M19.9333 0.550196C19.9333 0.550196 18.5 0.850098 16.3333 2.08343L18.4 4.1501C19.6333 1.98343 19.9333 0.550196 19.9333 0.550196Z" fill="#F15744"/>
<path d="M13.8333 8.31679C14.7538 8.31679 15.5 7.5706 15.5 6.65012C15.5 5.72965 14.7538 4.98345 13.8333 4.98345C12.9128 4.98345 12.1667 5.72965 12.1667 6.65012C12.1667 7.5706 12.9128 8.31679 13.8333 8.31679Z" fill="#EDF4F9"/>
<path d="M13.8333 7.75016C14.4408 7.75016 14.9333 7.25767 14.9333 6.65016C14.9333 6.04265 14.4408 5.55016 13.8333 5.55016C13.2258 5.55016 12.7333 6.04265 12.7333 6.65016C12.7333 7.25767 13.2258 7.75016 13.8333 7.75016Z" fill="#3BAACF"/>
<path d="M10.5 11.6501C11.4205 11.6501 12.1667 10.9039 12.1667 9.98341C12.1667 9.06294 11.4205 8.31675 10.5 8.31675C9.57952 8.31675 8.83333 9.06294 8.83333 9.98341C8.83333 10.9039 9.57952 11.6501 10.5 11.6501Z" fill="#EDF4F9"/>
<path d="M10.5 11.0835C11.1075 11.0835 11.6 10.591 11.6 9.98345C11.6 9.37594 11.1075 8.88345 10.5 8.88345C9.89246 8.88345 9.39998 9.37594 9.39998 9.98345C9.39998 10.591 9.89246 11.0835 10.5 11.0835Z" fill="#3BAACF"/>
<path d="M15.6334 2.11676C15.5334 2.21676 15.3334 2.21676 15.2334 2.11676C15.1334 2.01676 15.1334 1.81676 15.2334 1.71676C15.3334 1.61676 15.5334 1.61676 15.6334 1.71676C15.7334 1.81676 15.7334 2.01676 15.6334 2.11676Z" fill="white"/>
<path d="M16.2 2.95034C16.3473 2.95034 16.4667 2.83095 16.4667 2.68367C16.4667 2.5364 16.3473 2.41701 16.2 2.41701C16.0528 2.41701 15.9334 2.5364 15.9334 2.68367C15.9334 2.83095 16.0528 2.95034 16.2 2.95034Z" fill="white"/>
<path d="M17.0001 3.75025C17.1474 3.75025 17.2668 3.63086 17.2668 3.48358C17.2668 3.33631 17.1474 3.21692 17.0001 3.21692C16.8528 3.21692 16.7334 3.33631 16.7334 3.48358C16.7334 3.63086 16.8528 3.75025 17.0001 3.75025Z" fill="white"/>
<path d="M17.7667 4.55029C17.914 4.55029 18.0334 4.43089 18.0334 4.28362C18.0334 4.13634 17.914 4.01695 17.7667 4.01695C17.6194 4.01695 17.5 4.13634 17.5 4.28362C17.5 4.43089 17.6194 4.55029 17.7667 4.55029Z" fill="white"/>
<path d="M18.5667 5.31685C18.714 5.31685 18.8334 5.19746 18.8334 5.05018C18.8334 4.90291 18.714 4.78351 18.5667 4.78351C18.4195 4.78351 18.3001 4.90291 18.3001 5.05018C18.3001 5.19746 18.4195 5.31685 18.5667 5.31685Z" fill="white"/>
</svg>
