<svg width="32" height="33" viewBox="0 0 32 33" fill="none" xmlns="http://www.w3.org/2000/svg">
<path d="M16 32.5C24.8365 32.5 32 25.3365 32 16.5C32 7.66347 24.8365 0.5 16 0.5C7.16347 0.5 0 7.66347 0 16.5C0 25.3365 7.16347 32.5 16 32.5Z" fill="#25D366"/>
<path fill-rule="evenodd" clip-rule="evenodd" d="M16.5274 25.4016H16.5235C14.9311 25.4011 13.3665 25.0016 11.9769 24.2436L6.93335 25.5666L8.28308 20.6365C7.45048 19.1936 7.01242 17.557 7.01308 15.8801C7.01522 10.6344 11.2832 6.36664 16.5273 6.36664C19.0724 6.36774 21.4612 7.35858 23.2575 9.15691C25.0537 10.9552 26.0424 13.3455 26.0414 15.8876C26.0393 21.1322 21.773 25.3995 16.5274 25.4016ZM12.2106 22.5212L12.4993 22.6926C13.7135 23.4131 15.1052 23.7943 16.5242 23.7948H16.5274C20.8859 23.7948 24.4333 20.2474 24.435 15.8871C24.4359 13.7741 23.6142 11.7874 22.1212 10.2926C20.6282 8.79791 18.6427 7.97431 16.5305 7.97358C12.1686 7.97358 8.62122 11.5207 8.61948 15.8807C8.61888 17.3749 9.03695 18.83 9.82848 20.089L10.0165 20.3882L9.21768 23.3063L12.2106 22.5212ZM20.9949 17.936C21.1607 18.0161 21.2727 18.0702 21.3205 18.15C21.3799 18.2492 21.3799 18.7252 21.1819 19.2805C20.9837 19.8358 20.034 20.3426 19.5773 20.4108C19.1677 20.4721 18.6494 20.4976 18.0799 20.3166C17.7347 20.2071 17.2919 20.0608 16.7247 19.8159C14.4961 18.8536 12.99 16.6936 12.7053 16.2853C12.6854 16.2567 12.6715 16.2367 12.6637 16.2263L12.6618 16.2238C12.536 16.0559 11.693 14.9312 11.693 13.7672C11.693 12.6721 12.2309 12.0982 12.4785 11.834C12.4955 11.8159 12.5111 11.7992 12.525 11.784C12.7429 11.546 13.0005 11.4864 13.1589 11.4864C13.3174 11.4864 13.4761 11.4879 13.6146 11.4949C13.6317 11.4958 13.6495 11.4956 13.6678 11.4955C13.8063 11.4947 13.9791 11.4937 14.1495 11.903C14.215 12.0604 14.3109 12.294 14.4121 12.5402C14.6166 13.0382 14.8427 13.5885 14.8824 13.6681C14.9419 13.7871 14.9815 13.9259 14.9022 14.0846C14.8903 14.1084 14.8793 14.1308 14.8688 14.1523C14.8093 14.2738 14.7655 14.3632 14.6645 14.4812C14.6248 14.5275 14.5837 14.5775 14.5427 14.6275C14.4609 14.7271 14.3791 14.8267 14.3079 14.8976C14.1889 15.0162 14.065 15.1448 14.2037 15.3828C14.3423 15.6208 14.8195 16.3992 15.5261 17.0296C16.2859 17.7072 16.9461 17.9936 17.2808 18.1388C17.3461 18.1672 17.3991 18.1901 17.4379 18.2096C17.6755 18.3286 17.8142 18.3086 17.9529 18.15C18.0916 17.9914 18.5472 17.4558 18.7056 17.2179C18.8641 16.98 19.0226 17.0196 19.2405 17.0989C19.4585 17.1784 20.6272 17.7534 20.8649 17.8724C20.9113 17.8956 20.9547 17.9166 20.9949 17.936Z" fill="white"/>
</svg>
