<svg width="37" height="36" viewBox="0 0 37 36" fill="none" xmlns="http://www.w3.org/2000/svg">
<path d="M0.75 18C0.75 8.0589 8.8089 0 18.75 0C28.6911 0 36.75 8.0589 36.75 18C36.75 27.9411 28.6911 36 18.75 36C8.8089 36 0.75 27.9411 0.75 18Z" fill="#FF0000"/>
<path d="M27.9488 13.5548C27.728 12.7066 27.0773 12.0386 26.2512 11.8119C24.7541 11.3999 18.75 11.3999 18.75 11.3999C18.75 11.3999 12.746 11.3999 11.2487 11.8119C10.4225 12.0386 9.77192 12.7066 9.55112 13.5548C9.15002 15.0922 9.15002 18.2999 9.15002 18.2999C9.15002 18.2999 9.15002 21.5075 9.55112 23.045C9.77192 23.8933 10.4225 24.5612 11.2487 24.788C12.746 25.1999 18.75 25.1999 18.75 25.1999C18.75 25.1999 24.7541 25.1999 26.2512 24.788C27.0773 24.5612 27.728 23.8933 27.9488 23.045C28.35 21.5075 28.35 18.2999 28.35 18.2999C28.35 18.2999 28.35 15.0922 27.9488 13.5548Z" fill="white"/>
<path d="M16.95 21.6001V15.6001L21.75 18.6002L16.95 21.6001Z" fill="#FF0000"/>
</svg>
